<?xml version="1.0" standalone="no"?>
<!DOCTYPE svg PUBLIC "-//W3C//DTD SVG 20010904//EN"
 "http://www.w3.org/TR/2001/REC-SVG-20010904/DTD/svg10.dtd">
<svg version="1.0" xmlns="http://www.w3.org/2000/svg"
 width="4472.000000pt" height="3354.000000pt" viewBox="0 0 4472.000000 3354.000000"
 preserveAspectRatio="xMidYMid meet">

<g transform="translate(0.000000,3354.000000) scale(0.100000,-0.100000)"
fill="#000000" stroke="none">
<path d="M13585 31465 c-102 -19 -197 -61 -284 -125 -42 -31 -213 -164 -381
-294 -168 -130 -347 -269 -398 -309 -52 -40 -131 -101 -177 -137 -45 -36 -115
-90 -155 -120 -40 -30 -111 -85 -159 -122 -168 -132 -517 -402 -611 -474 -52
-40 -165 -127 -250 -194 -85 -66 -225 -174 -310 -240 -85 -66 -204 -159 -265
-206 -60 -47 -126 -97 -145 -112 -83 -64 -712 -551 -820 -635 -65 -51 -150
-117 -190 -147 -40 -30 -109 -84 -155 -120 -112 -88 -398 -309 -509 -395 -50
-38 -185 -143 -301 -232 -115 -90 -252 -196 -303 -236 -258 -199 -394 -304
-475 -368 -136 -105 -1288 -998 -1387 -1074 -346 -266 -516 -403 -554 -447
-53 -61 -109 -168 -131 -253 -19 -75 -20 -242 0 -315 20 -76 88 -207 134 -257
21 -22 163 -141 317 -264 1065 -850 1943 -1654 2514 -2304 326 -371 574 -730
645 -934 30 -85 30 -92 5 -234 -53 -302 -75 -651 -67 -1067 9 -442 42 -780
118 -1205 194 -1078 562 -2069 1186 -3190 308 -554 780 -1245 1247 -1830 321
-402 527 -635 1155 -1310 581 -624 1248 -1339 1505 -1615 111 -118 259 -278
331 -355 71 -77 162 -174 201 -215 40 -41 100 -109 134 -150 121 -146 315
-336 468 -458 253 -201 518 -346 802 -439 274 -89 592 -118 890 -82 136 16
354 77 507 140 409 170 728 438 953 799 77 124 65 119 156 62 166 -103 378
-205 499 -239 272 -78 374 -94 615 -93 251 0 335 14 600 97 572 180 1021 584
1246 1119 24 58 46 110 49 114 3 5 52 -13 108 -40 170 -79 302 -127 442 -159
50 -12 111 -26 137 -32 25 -6 86 -14 135 -19 48 -5 113 -12 145 -16 58 -7 349
10 453 27 161 26 431 96 497 130 20 10 58 26 83 34 59 21 250 113 345 168 88
51 238 153 294 199 265 221 432 409 572 643 45 77 60 93 69 83 7 -7 106 -125
221 -263 114 -137 492 -587 838 -1000 347 -412 823 -982 1060 -1265 502 -602
656 -778 871 -993 540 -540 1072 -892 1620 -1072 805 -263 1590 -145 2335 351
361 240 626 509 803 815 413 714 431 1676 50 2649 -97 247 -270 576 -412 780
-153 222 -113 177 -1231 1370 -168 179 -557 595 -865 925 -1058 1133 -1159
1240 -1320 1410 -146 154 -413 439 -649 694 -130 139 -338 361 -437 466 -47
49 -116 124 -154 165 -38 41 -101 109 -140 150 -40 41 -103 109 -141 150 -38
41 -103 111 -144 155 -42 44 -105 112 -140 150 -36 39 -103 111 -150 160 -83
88 -299 319 -430 460 -35 39 -101 108 -145 155 -44 47 -170 182 -280 300 -110
118 -238 255 -285 305 -47 49 -148 158 -225 240 -77 83 -176 188 -220 235 -44
47 -109 117 -145 155 -85 91 -282 302 -561 600 -447 477 -562 602 -643 700
-137 167 -306 414 -306 449 0 10 15 17 43 21 62 9 544 -3 977 -26 124 -7 266
-13 315 -15 50 -1 178 -7 285 -13 107 -6 242 -12 300 -15 58 -3 155 -9 215
-13 145 -9 1084 -10 1345 -1 350 12 758 59 1175 134 281 51 434 89 645 162
148 50 181 64 380 159 361 173 670 434 865 733 196 300 326 710 350 1100 16
268 -43 623 -145 881 -325 814 -1105 1419 -2190 1697 -137 35 -202 50 -415 92
-28 6 -84 15 -125 20 -41 5 -104 13 -140 19 -65 9 -180 21 -421 41 -158 13
-703 13 -911 0 -87 -6 -215 -17 -285 -25 -71 -9 -180 -20 -243 -25 -145 -12
-429 -53 -630 -91 -422 -81 -374 -76 -725 -73 -176 1 -342 5 -370 8 -27 3 -99
11 -160 16 -287 28 -548 79 -855 168 -285 83 -664 268 -975 475 -119 80 -188
130 -677 499 -141 106 -325 235 -408 287 -1000 613 -2808 1201 -4000 1301 -63
5 -158 12 -210 15 -121 8 -506 8 -630 0 l-95 -7 -97 114 c-53 62 -105 122
-115 133 -10 11 -97 112 -194 225 -96 113 -236 275 -310 360 -223 259 -553
642 -754 875 -629 731 -598 698 -713 758 -121 64 -273 87 -407 62z m207 -1707
c197 -228 519 -602 813 -943 943 -1095 909 -1058 1009 -1114 140 -79 292 -98
481 -62 174 33 285 42 505 42 461 0 953 -74 1580 -237 648 -169 1386 -441
1930 -714 304 -152 414 -224 795 -516 532 -409 784 -576 1135 -753 727 -367
1486 -539 2445 -554 248 -4 587 7 641 22 60 16 391 77 571 106 662 104 1351
126 1888 59 933 -116 1616 -481 1851 -989 113 -244 103 -546 -27 -805 -116
-234 -441 -424 -924 -540 -301 -73 -639 -115 -1120 -141 -245 -13 -1187 -6
-1485 10 -96 6 -229 13 -295 16 -66 3 -160 8 -210 10 -476 28 -711 37 -1075
42 -565 7 -748 -8 -985 -82 -607 -190 -891 -705 -735 -1336 70 -283 267 -648
544 -1004 158 -204 174 -222 1052 -1160 154 -165 451 -482 659 -705 208 -223
595 -637 860 -920 265 -283 652 -697 860 -920 699 -748 1069 -1144 1215 -1300
254 -271 699 -747 935 -1000 126 -135 319 -342 430 -460 111 -118 306 -327
435 -465 128 -137 389 -416 579 -620 190 -203 447 -478 570 -610 124 -132 315
-337 426 -455 218 -233 292 -326 390 -491 372 -626 483 -1360 278 -1836 -79
-182 -191 -308 -410 -465 -202 -143 -417 -241 -623 -285 -117 -24 -353 -24
-470 0 -373 79 -765 308 -1175 686 -225 208 -371 372 -987 1111 -273 327 -648
775 -833 995 -604 717 -681 810 -1368 1635 -373 448 -708 843 -744 878 -114
108 -273 172 -430 172 -112 0 -172 -14 -281 -66 -161 -77 -280 -217 -329 -385
-20 -71 -22 -100 -22 -267 1 -299 -38 -474 -152 -692 -137 -261 -360 -448
-685 -574 -148 -57 -276 -79 -424 -73 -157 7 -237 29 -395 107 -254 126 -484
341 -688 644 -110 162 -202 237 -355 289 -96 32 -286 32 -387 0 -91 -29 -184
-85 -252 -152 -173 -169 -227 -395 -161 -666 57 -234 64 -529 15 -715 -63
-242 -171 -380 -380 -485 -138 -70 -213 -89 -342 -90 -126 0 -206 20 -335 85
-235 118 -539 429 -700 715 -18 33 -68 94 -110 136 -133 132 -303 198 -479
186 -168 -12 -289 -66 -407 -182 -88 -88 -123 -142 -161 -255 -29 -85 -33
-164 -19 -406 25 -413 -121 -712 -424 -869 -250 -129 -496 -122 -770 22 -159
83 -363 253 -486 405 -52 64 -515 564 -1419 1533 -154 166 -431 463 -615 660
-184 198 -378 405 -430 461 -1838 1943 -2904 3979 -3111 5943 -26 252 -36 727
-20 948 13 173 32 328 61 498 26 154 30 233 19 359 -38 409 -276 876 -743
1460 -512 640 -1327 1433 -2358 2293 l-156 131 21 20 c12 10 324 252 692 537
934 723 1455 1127 1555 1205 47 37 184 143 305 236 121 94 400 310 620 480
475 368 1824 1414 2115 1639 113 88 270 209 350 271 80 62 264 205 410 318
146 113 266 206 267 206 1 0 84 -96 185 -212z"/>
</g>
</svg>
